<svg xmlns="http://www.w3.org/2000/svg" height="40.541mm" width="95.667mm" version="1.1" viewBox="0 0 95.666977 40.540516"><g transform="translate(-52.708 -112.69)"><g transform="matrix(.26458 0 0 .26458 -4.4584 70.139)"><path d="m4323.8 6378.1c-2.96 5.32-9.89 21.99-10.42 61.07l-.01 198.52c-1.16 67.56-27.01 124.5-74.75 164.68-45.31 38.15-105.29 57.49-178.25 57.49-44.77 0-85.45-7.18-121.55-21.39l-342.02 341.99c-20.85 20.83-48.61 32.3-78.15 32.3-29.55 0-57.3-11.47-78.15-32.32l-342.53-342.51c-34.69 14.58-74.63 21.93-119.38 21.93-71.27 0-131.94-17.97-180.26-53.41-9.53-6.99-17.98-14.63-25.91-22.55l.05 2.14c.58 30.35-19.14 57.37-48.22 66.06-17.26 5.15-36.8 7.76-58.08 7.76-25.6 0-49.64-5.33-71.48-15.6-9.24 4.71-19.68 7.36-30.7 7.36h-45.59v226.79c0 23.63-7.02 46.45-20.58 66.37-.56.83-1.18 1.67-1.81 2.51-3.81 5.27-7.79 9.94-12.09 14.23-2.65 2.66-5.08 4.7-7.11 6.32-2.03 1.78-5.56 4.86-10.16 7.96-4.36 2.96-8.26 5-11.07 6.41-2.86 1.64-5.8 3.14-8.88 4.46-5.99 2.55-11.59 4.21-15.85 5.32-2.2.66-4.47 1.25-6.47 1.66-7.76 1.58-15.69 2.39-23.57 2.39h-662.69c-64.85 0-117.6-52.78-117.6-117.63v-662.67c0-64.84 52.75-117.59 117.6-117.59h641.21c12.31-16.7 32.12-27.53 54.45-27.53h138.86c37.32 0 67.58 30.26 67.58 67.59v254.61c3.51.63 8.23 1.14 14.28 1.24l43.05-3.11c13.3-1 26.43 2.08 37.86 8.49 3.29-3.32 6.86-6.37 10.77-8.95-27.11-34.13-41.19-77.05-41.19-126.61 0-57.97 23.33-108.78 67.46-146.93 41.9-36.21 92.81-54.57 151.34-54.57 31.66 0 60.82 5.81 86.82 17.12 10.04-5.72 21.52-8.88 33.49-8.88h138.86c22.56 0 42.53 11.05 54.8 28.03l202.7-202.69c20.86-20.88 48.62-32.38 78.19-32.38 29.56 0 57.34 11.49 78.18 32.35l239 239c5.68-6.28 11.83-12.28 18.41-17.98 41.89-36.21 92.82-54.57 151.35-54.57 31.67 0 60.82 5.81 86.81 17.12 10.03-5.72 21.53-8.88 33.5-8.88h138.85c37.32 0 67.59 30.26 67.59 67.59v7.01c0 11.51-2.93 22.83-8.54 32.88" transform="matrix(.13333 0 0 -.13333 0 1122.5)" fill="#d3d2d2"/><path d="m2442.2 7106.4c-.12.17-.27.29-.38.45-1.72 2.48-3.61 4.83-5.74 6.93-.83.85-1.83 1.48-2.71 2.25-1.54 1.33-3.01 2.73-4.7 3.88-1.59 1.08-3.39 1.88-5.1 2.76-1.15.62-2.19 1.34-3.38 1.85-2.51 1.07-5.19 1.81-7.89 2.46-.5.13-.96.37-1.47.48-3.25.66-6.61 1.02-10.04 1.02h-662.69c-27.5 0-50.01-22.54-50.01-50.04v-662.67c0-27.5 22.51-49.99 50.01-49.99h662.69c3.43 0 6.78.34 10.04 1 1.64.34 3.15.98 4.73 1.48 1.54.49 3.15.81 4.63 1.45 2.96 1.25 5.76 2.78 8.4 4.56.02 0 .05.04.07.04 13.32 9.02 22.14 24.25 22.14 41.46v662.67c0 10.33-3.18 19.98-8.6 27.96" transform="matrix(.13333 0 0 -.13333 0 1122.5)" fill="#3d90d5"/><path d="m2364.6 7070.7h-590.4v-281.45h186.47v-423.5h217.5v423.5h186.43zm-47.06-47.06v-187.33h-186.42v-470.56h-123.39v470.56h-186.47v187.33h496.28" transform="matrix(.13333 0 0 -.13333 0 1122.5)" fill="#393536"/><path d="m2317.5 6836.3v187.33h-496.28v-187.33h186.47v-470.56h123.39v470.56h186.42" transform="matrix(.13333 0 0 -.13333 0 1122.5)" fill="#fff"/><path d="m1850.6 6996.7h437.62v-133.42h-437.62v133.42" fill-rule="evenodd" transform="matrix(.13333 0 0 -.13333 0 1122.5)" fill="#ed1c24"/><path d="m3540.9 7123.3 462.84-462.8c12.25-12.26 12.25-32.31 0-44.54l-462.84-462.81c-12.23-12.28-32.3-12.28-44.54 0l-462.82 462.81c-12.28 12.23-12.28 32.28 0 44.54l462.82 462.8c12.24 12.25 32.31 12.25 44.54 0" fill-rule="evenodd" transform="matrix(.13333 0 0 -.13333 0 1122.5)" fill="#fff"/><path d="m3549 7132.7 464.13-464.09c16.67-16.71 16.67-44.05 0-60.75l-464.13-464.09c-16.71-16.73-44.03-16.73-60.74 0l-464.11 464.09c-16.68 16.7-16.68 44.04 0 60.75l464.11 464.09c16.71 16.7 44.03 16.7 60.74 0" fill-rule="evenodd" transform="matrix(.13333 0 0 -.13333 0 1122.5)" fill="#fff"/><path d="m3562 7038.3 356.65-356.64c23.92-23.89 23.92-62.99 0-86.83l-356.65-356.69c-23.86-23.88-62.98-23.88-86.84 0l-356.68 356.69c-23.86 23.84-23.86 62.94 0 86.83l356.68 356.64c23.86 23.9 62.98 23.9 86.84 0zm7.1 13.34 362.88-362.93c27.81-27.77 27.81-73.19 0-100.98l-362.88-362.93c-27.78-27.76-73.23-27.76-101.01 0l-362.93 362.93c-27.78 27.79-27.78 73.21 0 100.98l362.93 362.93c27.78 27.76 73.23 27.76 101.01 0" fill-rule="evenodd" transform="matrix(.13333 0 0 -.13333 0 1122.5)" fill="#393536"/><path d="m3518.6 7046.4c-13.85 0-26.83-5.35-36.53-15.06l-356.69-356.64c-20.13-20.17-20.13-52.94 0-73.06l356.7-356.6c9.71-9.71 22.69-15.06 36.54-15.06 13.86 0 26.83 5.35 36.53 15.05l356.66 356.69c9.72 9.7 15.08 22.65 15.08 36.49.01 13.86-5.35 26.85-15.08 36.57l-356.65 356.64c-9.71 9.72-22.68 15.07-36.54 15.07zm.01-852.24c-21.73 0-42.11 8.41-57.39 23.67l-362.93 362.93c-31.63 31.66-31.63 83.13 0 114.75l362.93 362.93c15.28 15.27 35.66 23.68 57.39 23.68 21.74 0 42.12-8.41 57.4-23.68l362.88-362.93c15.28-15.25 23.7-35.62 23.71-57.34.01-21.73-8.42-42.12-23.71-57.41l-362.88-362.93c-15.28-15.26-35.66-23.67-57.4-23.67" transform="matrix(.13333 0 0 -.13333 0 1122.5)" fill="#393536"/><path d="m3562 7038.3 356.65-356.64c23.92-23.89 23.92-62.99 0-86.83l-356.65-356.69c-23.86-23.88-62.98-23.88-86.84 0l-356.68 356.69c-23.86 23.84-23.86 62.94 0 86.83l356.68 356.64c23.86 23.9 62.98 23.9 86.84 0" fill-rule="evenodd" transform="matrix(.13333 0 0 -.13333 0 1122.5)" fill="#eded06"/><path d="m3610.5 6497.7c0 21.15-7.48 37.64-22.46 49.46-14.97 11.81-41.27 24.04-78.9 36.68-37.65 12.62-68.4 24.85-92.29 36.65-77.74 38.19-116.62 90.65-116.62 157.4 0 33.24 9.69 62.55 29.06 87.98 19.36 25.4 46.76 45.17 82.2 59.33 35.43 14.14 75.26 21.21 119.49 21.21 43.11 0 81.79-7.68 115.98-23.08 34.2-15.39 60.77-37.27 79.73-65.7 18.95-28.44 28.44-60.92 28.44-97.45h-144.2c0 24.45-7.49 43.4-22.45 56.86-14.98 13.46-35.23 20.19-60.78 20.19-25.81 0-46.21-5.71-61.19-17.09-14.97-11.42-22.45-25.9-22.45-43.48 0-15.39 8.24-29.34 24.72-41.82 16.47-12.5 45.46-25.42 86.93-38.74 41.48-13.32 75.54-27.67 102.19-43.06 64.84-37.35 97.25-88.86 97.25-154.5 0-52.48-19.79-93.67-59.34-123.62-39.56-29.94-93.82-44.92-162.75-44.92-48.62 0-92.65 8.74-132.06 26.18-39.43 17.44-69.09 41.33-89 71.7-19.92 30.33-29.87 65.31-29.87 104.85h145.04c0-32.13 8.3-55.82 24.92-71.07s43.61-22.87 80.97-22.87c23.89 0 42.78 5.15 56.66 15.44 13.86 10.32 20.8 24.8 20.8 43.47" transform="matrix(.13333 0 0 -.13333 0 1122.5)" fill="#393536"/><path d="m4038.9 6428.9c17.29 0 31.64 3.7 43.04 11.13 11.39 7.41 19.59 15.78 24.52 25.12v71.3h-40.37c-48.37 0-72.54-21.7-72.54-65.1 0-12.64 4.27-22.87 12.79-30.72 8.52-7.82 19.37-11.73 32.56-11.73zm86.94-90.65c-4.96 9.08-9.36 22.4-13.2 39.98-25.55-32.16-61.24-48.23-107.11-48.23-42.03 0-77.76 12.72-107.14 38.12-29.41 25.41-44.08 57.35-44.08 95.8 0 48.34 17.84 84.87 53.56 109.6 35.69 24.73 87.62 37.09 155.75 37.09h42.84v23.59c0 41.13-17.71 61.71-53.15 61.71-32.95 0-49.43-16.3-49.43-48.87h-138.86c0 43.07 18.33 78.05 55 104.94 36.68 26.9 83.44 40.33 140.29 40.33 56.87 0 101.79-13.88 134.74-41.61 32.97-27.76 49.85-65.78 50.68-114.14v-197.35c.54-40.93 6.88-72.25 18.96-93.95v-7.01h-138.85" transform="matrix(.13333 0 0 -.13333 0 1122.5)" fill="#fff"/><path d="m4066.1 6519.5c-49.03 0-55.64-24.37-55.64-48.2 0-7.87 2.33-13.68 7.34-18.29 5.32-4.88 12.23-7.26 21.11-7.26 13.89 0 25.27 2.82 33.82 8.39 7.48 4.86 13.13 10.1 16.85 15.6v49.76zm-27.19-107.55c-17.49 0-32.28 5.45-43.99 16.18-11.95 11.02-18.25 25.94-18.25 43.17 0 52.88 31.76 82 89.43 82h40.37c9.34 0 16.9-7.56 16.9-16.9v-71.3c0-2.75-.67-5.46-1.95-7.89-6.26-11.85-16.44-22.41-30.25-31.4-14.13-9.19-31.71-13.86-52.26-13.86zm24.72 181.72c-64.31 0-113.48-11.47-146.13-34.09-31.15-21.56-46.28-52.87-46.28-95.71 0-33.63 12.5-60.78 38.22-83.01 26.48-22.88 57.91-34.01 96.1-34.01 40.8 0 71.51 13.69 93.88 41.84 4.05 5.11 10.69 7.43 17.04 5.95 6.36-1.48 11.3-6.48 12.7-12.85 2.34-10.75 4.88-19.68 7.55-26.69h104.96c-8.16 22.08-12.38 49.74-12.82 83.84l-.01 197.57c-.74 43.34-15.35 76.54-44.67 101.21-29.67 24.98-71.34 37.64-123.85 37.64-52.92 0-96.77-12.47-130.3-37.06-27.37-20.07-42.84-44.53-46.97-74.42h105.42c5.84 31.3 28.75 48.88 64.85 48.88 26.16 0 70.05-10.21 70.05-78.61v-23.59c0-9.33-7.56-16.89-16.9-16.89zm-58.09-280.62c-46.01 0-85.78 14.22-118.19 42.24-33.13 28.62-49.93 65.16-49.93 108.58 0 53.99 20.47 95.55 60.84 123.5 38.41 26.6 94.04 40.09 165.37 40.09h25.95v6.69c0 39.39-17.43 44.81-36.26 44.81-23.72 0-32.53-8.66-32.53-31.97 0-9.34-7.57-16.9-16.9-16.9h-138.86c-9.33 0-16.9 7.56-16.9 16.9 0 48.55 20.83 88.44 61.9 118.57 39.46 28.93 90.02 43.6 150.29 43.6 60.7 0 109.69-15.34 145.62-45.58 36.71-30.91 55.78-73.56 56.7-126.78v-197.64c.49-37.65 6.15-66.57 16.82-85.73 1.4-2.51 2.14-5.35 2.14-8.22v-7.01c0-9.33-7.57-16.9-16.9-16.9h-138.85c-6.18 0-11.87 3.37-14.83 8.8-2.42 4.43-4.68 9.56-6.81 15.45-26.27-21.59-59.33-32.5-98.67-32.5" transform="matrix(.13333 0 0 -.13333 0 1122.5)" fill="#393536"/><path d="m2702.4 6658.4-45.73 3.3c-43.68 0-71.69-13.74-84.05-41.21v-282.24h-138.86v445.82h130.21l4.53-57.26c23.35 43.66 55.91 65.5 97.65 65.5 14.84 0 27.74-1.65 38.72-4.93l-2.47-128.98" transform="matrix(.13333 0 0 -.13333 0 1122.5)" fill="#fff"/><path d="m2450.6 6355.1h105.06v265.34c0 2.39.51 4.75 1.49 6.93 15.28 33.96 48.74 51.18 99.46 51.18.41 0 .81-.01 1.22-.04l27.96-2.02 1.87 97.36c-6.54 1.01-13.75 1.51-21.57 1.51-35.32 0-62.39-18.5-82.75-56.57-3.55-6.61-11.03-10.11-18.36-8.57-7.34 1.54-12.8 7.73-13.39 15.21l-3.3 41.69h-97.69zm121.96-33.8h-138.86c-9.33 0-16.9 7.57-16.9 16.9v445.82c0 9.33 7.57 16.9 16.9 16.9h130.21c8.81 0 16.14-6.78 16.84-15.57l.9-11.44c23.01 23.42 51.27 35.25 84.44 35.25 16.38 0 31.03-1.9 43.56-5.64 7.27-2.17 12.2-8.93 12.06-16.52l-2.47-128.97c-.09-4.64-2.08-9.04-5.51-12.16-3.42-3.13-8.01-4.72-12.6-4.38l-45.12 3.26c-47.98-.15-61.66-18.58-66.55-28.11v-278.44c0-9.33-7.57-16.9-16.9-16.9" transform="matrix(.13333 0 0 -.13333 0 1122.5)" fill="#393536"/><path d="m2957.1 6428.9c17.29 0 31.65 3.7 43.06 11.13 11.39 7.41 19.57 15.78 24.51 25.12v71.3h-40.37c-48.35 0-72.53-21.7-72.53-65.1 0-12.64 4.25-22.87 12.77-30.72 8.52-7.82 19.38-11.73 32.56-11.73zm86.93-90.65c-4.95 9.08-9.33 22.4-13.19 39.98-25.55-32.16-61.25-48.23-107.12-48.23-42.02 0-77.74 12.72-107.13 38.12-29.39 25.41-44.09 57.35-44.09 95.8 0 48.34 17.85 84.87 53.57 109.6 35.7 24.73 87.62 37.09 155.75 37.09h42.85v23.59c0 41.13-17.72 61.71-53.16 61.71-32.95 0-49.43-16.3-49.43-48.87h-138.87c0 43.07 18.34 78.05 55.01 104.94 36.68 26.9 83.44 40.33 140.3 40.33s101.78-13.88 134.73-41.61c32.97-27.76 49.86-65.78 50.69-114.14v-197.35c.53-40.93 6.86-72.25 18.95-93.95v-7.01h-138.86" transform="matrix(.13333 0 0 -.13333 0 1122.5)" fill="#fff"/><path d="m2984.3 6519.5c-49.03 0-55.63-24.37-55.63-48.2 0-7.87 2.32-13.68 7.32-18.29 5.31-4.88 12.23-7.26 21.11-7.26 13.9 0 25.28 2.82 33.84 8.39 7.46 4.85 13.1 10.08 16.83 15.6v49.76zm-27.2-107.55c-17.5 0-32.3 5.45-43.99 16.19-11.94 11-18.24 25.92-18.24 43.16 0 52.88 31.76 82 89.43 82h40.37c9.33 0 16.9-7.56 16.9-16.9v-71.3c0-2.75-.68-5.47-1.97-7.9-6.28-11.87-16.45-22.43-30.24-31.39-14.12-9.19-31.7-13.86-52.26-13.86zm24.72 181.72c-64.32 0-113.48-11.47-146.12-34.09-31.16-21.56-46.3-52.87-46.3-95.71 0-33.62 12.51-60.77 38.24-83.01 26.47-22.88 57.9-34.01 96.08-34.01 40.81 0 71.52 13.69 93.89 41.84 4.05 5.11 10.69 7.43 17.04 5.95 6.36-1.47 11.3-6.47 12.69-12.84 2.37-10.76 4.9-19.7 7.57-26.7h104.96c-8.17 22.07-12.39 49.73-12.83 83.84v197.57c-.74 43.33-15.35 76.53-44.67 101.21-29.68 24.98-71.35 37.64-123.85 37.64-52.93 0-96.77-12.47-130.31-37.06-27.37-20.07-42.85-44.54-46.98-74.42h105.43c5.84 31.3 28.75 48.88 64.85 48.88 26.17 0 70.06-10.21 70.06-78.61v-23.59c0-9.33-7.57-16.89-16.9-16.89zm-58.1-280.62c-46.01 0-85.77 14.22-118.18 42.24-33.13 28.64-49.94 65.17-49.94 108.58 0 53.99 20.47 95.54 60.85 123.5 38.41 26.6 94.05 40.09 165.37 40.09h25.95v6.69c0 39.39-17.42 44.81-36.26 44.81-23.71 0-32.53-8.66-32.53-31.97 0-9.34-7.57-16.9-16.9-16.9h-138.87c-9.33 0-16.9 7.56-16.9 16.9 0 48.55 20.84 88.44 61.92 118.57 39.46 28.93 90.02 43.6 150.29 43.6 60.69 0 109.68-15.34 145.62-45.58 36.71-30.92 55.79-73.57 56.69-126.78v-197.64c.5-37.67 6.16-66.59 16.82-85.73 1.4-2.51 2.14-5.34 2.14-8.22v-7.01c0-9.33-7.57-16.9-16.9-16.9h-138.86c-6.18 0-11.87 3.38-14.83 8.81-2.41 4.42-4.67 9.55-6.79 15.44-26.27-21.59-59.34-32.5-98.69-32.5" transform="matrix(.13333 0 0 -.13333 0 1122.5)" fill="#393536"/><path d="m1792.7 6181.4h-41.53v-112.97h-27.95v112.97h-40.98v22.64h110.46v-22.64" transform="matrix(.13333 0 0 -.13333 0 1122.5)" fill="#393536"/><path d="m1836.6 6140.7h22.55c7.01 0 12.44 1.79 16.29 5.36s5.78 8.49 5.78 14.76c0 6.4-1.82 11.42-5.45 15.09-3.63 3.66-9.21 5.49-16.72 5.49h-22.45zm22.26-22.63h-22.26v-49.64h-27.94v135.61h50.39c16.02 0 28.38-3.57 37.07-10.71 8.69-7.15 13.04-17.23 13.04-30.27 0-9.26-2-16.97-6.01-23.15-4-6.18-10.07-11.1-18.21-14.76l29.34-55.42v-1.3h-29.99l-25.43 49.64" transform="matrix(.13333 0 0 -.13333 0 1122.5)" fill="#393536"/><path d="m1965.5 6119h33.91l-17.05 50.76zm41.45-22.63h-48.99l-9.31-27.94h-29.71l50.47 135.61h25.9l50.76-135.61h-29.71l-9.41 27.94" transform="matrix(.13333 0 0 -.13333 0 1122.5)" fill="#393536"/><path d="m2140.3 6123.9h-53.65v-55.42h-27.94v135.61h88.29v-22.64h-60.35v-35.01h53.65v-22.54" transform="matrix(.13333 0 0 -.13333 0 1122.5)" fill="#393536"/><path d="m2244.8 6123.9h-53.65v-55.42h-27.94v135.61h88.3v-22.64h-60.36v-35.01h53.65v-22.54" transform="matrix(.13333 0 0 -.13333 0 1122.5)" fill="#393536"/><path d="m2269.5 6068.4h27.949v135.61h-27.9z" transform="matrix(.13333 0 0 -.13333 0 1122.5)" fill="#393536"/><path d="m2429.8 6113.6c-1.06-14.59-6.45-26.08-16.16-34.46-9.72-8.38-22.53-12.58-38.42-12.58-17.39 0-31.06 5.86-41.03 17.56s-14.95 27.77-14.95 48.2v8.29c0 13.04 2.3 24.53 6.89 34.46 4.6 9.94 11.16 17.56 19.7 22.87s18.46 7.96 29.76 7.96c15.65 0 28.25-4.19 37.82-12.57 9.56-8.39 15.09-20.15 16.58-35.3h-27.95c-.68 8.75-3.12 15.1-7.31 19.04-4.19 3.95-10.57 5.92-19.14 5.92-9.32 0-16.28-3.34-20.91-10.01-4.63-6.68-7-17.03-7.13-31.07v-10.24c0-14.66 2.23-25.37 6.66-32.14 4.44-6.76 11.44-10.15 21.01-10.15 8.63 0 15.07 1.97 19.33 5.92 4.25 3.94 6.69 10.04 7.31 18.3h27.94" transform="matrix(.13333 0 0 -.13333 0 1122.5)" fill="#393536"/><path d="m2566 6104c0 5.27-1.86 9.32-5.59 12.15-3.72 2.83-10.43 5.81-20.12 8.94-9.68 3.14-17.35 6.23-23 9.27-15.4 8.32-23.1 19.53-23.1 33.62 0 7.33 2.06 13.86 6.19 19.61 4.13 5.74 10.06 10.23 17.79 13.46s16.41 4.84 26.03 4.84c9.69 0 18.32-1.75 25.9-5.26 7.57-3.51 13.46-8.46 17.65-14.86 4.19-6.39 6.28-13.66 6.28-21.79h-27.94c0 6.21-1.95 11.04-5.86 14.48-3.92 3.45-9.41 5.17-16.49 5.17-6.83 0-12.14-1.44-15.93-4.33s-5.68-6.69-5.68-11.41c0-4.41 2.22-8.1 6.66-11.09 4.44-2.97 10.98-5.77 19.6-8.37 15.9-4.79 27.48-10.72 34.75-17.8 7.26-7.07 10.89-15.89 10.89-26.45 0-11.74-4.43-20.94-13.31-27.61-8.88-6.68-20.84-10.02-35.86-10.02-10.44 0-19.94 1.91-28.51 5.73-8.56 3.82-15.1 9.05-19.6 15.7-4.5 6.64-6.75 14.34-6.75 23.09h28c0-14.96 8.94-22.44 26.83-22.44 6.64 0 11.83 1.35 15.55 4.05 3.73 2.7 5.59 6.47 5.59 11.32" transform="matrix(.13333 0 0 -.13333 0 1122.5)" fill="#393536"/><path d="m2648 6119h33.9l-17.04 50.76zm41.45-22.63h-49l-9.31-27.94h-29.71l50.48 135.61h25.89l50.76-135.61h-29.71l-9.4 27.94" transform="matrix(.13333 0 0 -.13333 0 1122.5)" fill="#393536"/><path d="m2822.9 6123.9h-53.66v-55.42h-27.94v135.61h88.3v-22.64h-60.36v-35.01h53.66v-22.54" transform="matrix(.13333 0 0 -.13333 0 1122.5)" fill="#393536"/><path d="m2927.4 6127.4h-53.65v-36.52h62.96v-22.44h-90.9v135.61h90.71v-22.64h-62.77v-32.31h53.65v-21.7" transform="matrix(.13333 0 0 -.13333 0 1122.5)" fill="#393536"/><path d="m3057 6181.4h-41.54v-112.97h-27.94v112.97h-40.98v22.64h110.46v-22.64" transform="matrix(.13333 0 0 -.13333 0 1122.5)" fill="#393536"/><path d="m3121.2 6143 28.21 61.1h30.56l-44.53-86.43v-49.18h-28.4v49.18l-44.53 86.43h30.65l28.04-61.1" transform="matrix(.13333 0 0 -.13333 0 1122.5)" fill="#393536"/></g></g></svg>
